<svg height="200px" width="200px" version="1.1" id="Layer_1"
  xmlns="http://www.w3.org/2000/svg"
  xmlns:xlink="http://www.w3.org/1999/xlink" viewBox="0 0 512 512" xml:space="preserve" fill="#000000">
  <g id="SVGRepo_bgCarrier" stroke-width="0"></g>
  <g id="SVGRepo_tracerCarrier" stroke-linecap="round" stroke-linejoin="round"></g>
  <g id="SVGRepo_iconCarrier">
    <g>
      <path style="fill: transparent;stroke: black;stroke-width: 1.3em;stroke-linejoin: round;" d="M211.862,229.517H17.655C7.901,229.517,0,221.617,0,211.862V17.655C0,7.901,7.901,0,17.655,0 h194.207c9.754,0,17.655,7.901,17.655,17.655v194.207C229.517,221.617,221.617,229.517,211.862,229.517"></path>
      <g>
        <path style="fill:#050505;" d="M123.586,52.966H35.31c-4.873,0-8.828-3.955-8.828-8.828s3.955-8.828,8.828-8.828h88.276 c4.873,0,8.828,3.955,8.828,8.828S128.459,52.966,123.586,52.966"></path>
        <path style="fill:#050505;" d="M158.897,88.276H61.793c-4.873,0-8.828-3.955-8.828-8.828c0-4.873,3.955-8.828,8.828-8.828h97.103 c4.873,0,8.828,3.955,8.828,8.828C167.724,84.321,163.769,88.276,158.897,88.276"></path>
        <path style="fill:#050505;" d="M123.586,123.586H35.31c-4.873,0-8.828-3.955-8.828-8.828s3.955-8.828,8.828-8.828h88.276 c4.873,0,8.828,3.955,8.828,8.828S128.459,123.586,123.586,123.586"></path>
        <path style="fill:#050505;" d="M70.621,158.897H35.31c-4.873,0-8.828-3.955-8.828-8.828c0-4.873,3.955-8.828,8.828-8.828h35.31 c4.873,0,8.828,3.955,8.828,8.828C79.448,154.942,75.494,158.897,70.621,158.897"></path>
        <path style="fill:#050505;" d="M123.586,194.207H52.966c-4.873,0-8.828-3.955-8.828-8.828c0-4.873,3.955-8.828,8.828-8.828h70.621 c4.873,0,8.828,3.955,8.828,8.828C132.414,190.252,128.459,194.207,123.586,194.207"></path>
      </g>
      <path style="fill: transparent;stroke: black;stroke-width: 1.3em;stroke-linejoin: round;5555555555" d="M494.345,512H300.138c-9.754,0-17.655-7.901-17.655-17.655V300.138 c0-9.754,7.901-17.655,17.655-17.655h194.207c9.754,0,17.655,7.901,17.655,17.655v194.207C512,504.099,504.099,512,494.345,512"></path>
      <g>
        <path style="fill:#050505;" d="M406.069,335.448h-88.276c-4.873,0-8.828-3.955-8.828-8.828c0-4.873,3.955-8.828,8.828-8.828 h88.276c4.873,0,8.828,3.955,8.828,8.828C414.897,331.493,410.942,335.448,406.069,335.448"></path>
        <path style="fill:#050505;" d="M441.379,370.759h-97.103c-4.873,0-8.828-3.955-8.828-8.828s3.955-8.828,8.828-8.828h97.103 c4.873,0,8.828,3.955,8.828,8.828S446.252,370.759,441.379,370.759"></path>
        <path style="fill:#050505;" d="M406.069,406.069h-88.276c-4.873,0-8.828-3.955-8.828-8.828c0-4.873,3.955-8.828,8.828-8.828 h88.276c4.873,0,8.828,3.955,8.828,8.828C414.897,402.114,410.942,406.069,406.069,406.069"></path>
        <path style="fill:#050505;" d="M353.103,441.379h-35.31c-4.873,0-8.828-3.955-8.828-8.828s3.955-8.828,8.828-8.828h35.31 c4.873,0,8.828,3.955,8.828,8.828S357.976,441.379,353.103,441.379"></path>
        <path style="fill:#050505;" d="M406.069,476.69h-70.621c-4.873,0-8.828-3.955-8.828-8.828s3.955-8.828,8.828-8.828h70.621 c4.873,0,8.828,3.955,8.828,8.828S410.942,476.69,406.069,476.69"></path>
      </g>
      <g>
        <path style="fill:#B0B6BB;" d="M467.862,256c-4.873,0-8.828-3.955-8.828-8.828c0-5.685-0.212-11.405-0.636-16.993 c-0.371-4.864,3.266-9.101,8.13-9.472c4.855-0.38,9.101,3.275,9.472,8.139c0.459,6.029,0.689,12.2,0.689,18.326 C476.69,252.045,472.735,256,467.862,256"></path>
        <path style="fill:#B0B6BB;" d="M445.884,160.048c-3.231,0-6.347-1.783-7.901-4.864c-2.895-5.773-6.144-11.467-9.64-16.914 c-2.631-4.105-1.439-9.56,2.657-12.2c4.096-2.631,9.56-1.448,12.2,2.666c3.831,5.959,7.389,12.191,10.567,18.52 c2.189,4.352,0.424,9.666-3.928,11.855C448.568,159.748,447.217,160.048,445.884,160.048 M462.78,208.043 c-4.061,0-7.715-2.816-8.625-6.947c-1.395-6.391-3.107-12.738-5.085-18.856c-1.51-4.634,1.042-9.613,5.676-11.114 c4.661-1.51,9.622,1.042,11.114,5.676c2.163,6.665,4.025,13.568,5.553,20.533c1.033,4.758-1.986,9.463-6.744,10.505 C464.034,207.981,463.398,208.043,462.78,208.043"></path>
        <path style="fill:#B0B6BB;" d="M332.53,63.379c-0.9,0-1.818-0.141-2.719-0.433c-6.109-1.977-12.456-3.699-18.856-5.094 c-4.767-1.042-7.777-5.747-6.744-10.514c1.05-4.758,5.729-7.777,10.514-6.735c6.956,1.518,13.868,3.39,20.524,5.544 c4.634,1.501,7.186,6.479,5.676,11.123C339.716,60.996,336.255,63.379,332.53,63.379 M378.504,85.069 c-1.633,0-3.284-0.45-4.758-1.404c-5.411-3.469-11.096-6.718-16.905-9.64c-4.352-2.189-6.109-7.495-3.911-11.855 c2.189-4.352,7.477-6.109,11.847-3.911c6.356,3.196,12.588,6.753,18.511,10.558c4.105,2.631,5.288,8.095,2.657,12.2 C384.26,83.639,381.417,85.069,378.504,85.069 M417.257,118.022c-2.428,0-4.838-0.989-6.577-2.931 c-4.334-4.829-8.96-9.454-13.745-13.745c-3.628-3.249-3.928-8.828-0.68-12.465c3.249-3.619,8.836-3.946,12.465-0.68 c5.261,4.714,10.346,9.79,15.104,15.095c3.249,3.628,2.948,9.207-0.68,12.473C421.459,117.272,419.349,118.022,417.257,118.022"></path>
        <path style="fill:#B0B6BB;" d="M282.496,53.629c-0.221,0-0.45-0.009-0.68-0.026c-5.588-0.424-11.299-0.636-16.984-0.636 c-4.882,0-8.828-3.955-8.828-8.828c0-4.873,3.946-8.828,8.828-8.828c6.126,0,12.288,0.23,18.326,0.689 c4.855,0.362,8.501,4.608,8.13,9.472C290.944,50.107,287.069,53.629,282.496,53.629"></path>
        <path style="fill:#B0B6BB;" d="M44.793,291.315c-4.573,0-8.448-3.522-8.792-8.157c-0.459-6.038-0.689-12.2-0.689-18.326 c0-4.882,3.955-8.828,8.828-8.828c4.873,0,8.828,3.946,8.828,8.828c0,5.685,0.212,11.396,0.636,16.984 c0.371,4.864-3.275,9.11-8.13,9.472C45.243,291.306,45.014,291.315,44.793,291.315"></path>
        <path style="fill:#B0B6BB;" d="M54.534,341.311c-3.725,0-7.186-2.383-8.395-6.109c-2.163-6.665-4.025-13.568-5.553-20.533 c-1.033-4.767,1.986-9.463,6.744-10.505c4.758-1.024,9.463,1.977,10.514,6.735c1.395,6.4,3.107,12.747,5.085,18.856 c1.51,4.643-1.042,9.622-5.676,11.123C56.353,341.169,55.435,341.311,54.534,341.311 M76.232,387.329 c-2.904,0-5.747-1.43-7.433-4.061c-3.831-5.967-7.389-12.2-10.567-18.52c-2.189-4.361-0.424-9.666,3.928-11.855 c4.352-2.18,9.657-0.424,11.855,3.928c2.895,5.773,6.144,11.458,9.64,16.914c2.631,4.096,1.439,9.56-2.657,12.191 C79.525,386.879,77.874,387.329,76.232,387.329"></path>
        <path style="fill:#B0B6BB;" d="M109.164,426.052c-2.092,0-4.202-0.742-5.888-2.251c-5.261-4.723-10.337-9.799-15.095-15.095 c-3.257-3.628-2.957-9.216,0.671-12.473c3.628-3.257,9.207-2.94,12.473,0.68c4.326,4.829,8.951,9.454,13.736,13.736 c3.628,3.257,3.937,8.836,0.68,12.465C114.001,425.063,111.582,426.052,109.164,426.052 M151.183,454.689 c-1.333,0-2.684-0.309-3.964-0.945c-6.356-3.204-12.579-6.753-18.511-10.558c-4.096-2.631-5.288-8.095-2.648-12.2 c2.631-4.096,8.086-5.297,12.191-2.657c5.411,3.478,11.096,6.727,16.905,9.649c4.361,2.189,6.109,7.495,3.919,11.847 C157.53,452.905,154.414,454.689,151.183,454.689 M199.17,471.602c-0.627,0-1.262-0.071-1.898-0.203 c-6.956-1.527-13.859-3.39-20.524-5.553c-4.634-1.501-7.177-6.479-5.676-11.114c1.501-4.634,6.479-7.168,11.114-5.676 c6.118,1.977,12.465,3.69,18.865,5.094c4.758,1.042,7.777,5.747,6.735,10.514C206.876,468.786,203.23,471.602,199.17,471.602"></path>
        <path style="fill:#B0B6BB;" d="M247.172,476.69c-6.126,0-12.297-0.23-18.326-0.689c-4.864-0.371-8.51-4.608-8.139-9.472 c0.371-4.864,4.529-8.554,9.472-8.13c5.588,0.424,11.308,0.636,16.993,0.636c4.873,0,8.828,3.955,8.828,8.828 S252.045,476.69,247.172,476.69"></path>
      </g>
    </g>
  </g>
</svg>